<svg width="696" height="331" viewBox="0 0 696 331" fill="none" xmlns="http://www.w3.org/2000/svg">
<rect width="696" height="331" fill="#F5F5F5"/>
<path d="M411.482 132.818V191H404.436V132.818H411.482ZM431.403 164.75V191H424.699V147.364H431.176V154.182H431.744C432.767 151.966 434.32 150.186 436.403 148.841C438.487 147.477 441.176 146.795 444.472 146.795C447.426 146.795 450.011 147.402 452.227 148.614C454.443 149.807 456.167 151.625 457.398 154.068C458.629 156.492 459.244 159.561 459.244 163.273V191H452.54V163.727C452.54 160.299 451.65 157.629 449.869 155.716C448.089 153.784 445.646 152.818 442.54 152.818C440.4 152.818 438.487 153.282 436.801 154.21C435.134 155.138 433.818 156.492 432.852 158.273C431.886 160.053 431.403 162.212 431.403 164.75ZM478.2 164.75V191H471.496V147.364H477.973V154.182H478.541C479.564 151.966 481.117 150.186 483.2 148.841C485.284 147.477 487.973 146.795 491.268 146.795C494.223 146.795 496.808 147.402 499.024 148.614C501.24 149.807 502.964 151.625 504.195 154.068C505.426 156.492 506.041 159.561 506.041 163.273V191H499.337V163.727C499.337 160.299 498.446 157.629 496.666 155.716C494.886 153.784 492.443 152.818 489.337 152.818C487.196 152.818 485.284 153.282 483.598 154.21C481.931 155.138 480.615 156.492 479.649 158.273C478.683 160.053 478.2 162.212 478.2 164.75ZM536.02 191.909C532.08 191.909 528.624 190.972 525.651 189.097C522.696 187.222 520.385 184.598 518.719 181.227C517.071 177.856 516.247 173.917 516.247 169.409C516.247 164.864 517.071 160.896 518.719 157.506C520.385 154.116 522.696 151.483 525.651 149.608C528.624 147.733 532.08 146.795 536.02 146.795C539.959 146.795 543.406 147.733 546.361 149.608C549.334 151.483 551.645 154.116 553.293 157.506C554.959 160.896 555.793 164.864 555.793 169.409C555.793 173.917 554.959 177.856 553.293 181.227C551.645 184.598 549.334 187.222 546.361 189.097C543.406 190.972 539.959 191.909 536.02 191.909ZM536.02 185.886C539.012 185.886 541.474 185.119 543.406 183.585C545.338 182.051 546.768 180.034 547.696 177.534C548.624 175.034 549.088 172.326 549.088 169.409C549.088 166.492 548.624 163.775 547.696 161.256C546.768 158.737 545.338 156.701 543.406 155.148C541.474 153.595 539.012 152.818 536.02 152.818C533.027 152.818 530.565 153.595 528.634 155.148C526.702 156.701 525.272 158.737 524.344 161.256C523.416 163.775 522.952 166.492 522.952 169.409C522.952 172.326 523.416 175.034 524.344 177.534C525.272 180.034 526.702 182.051 528.634 183.585C530.565 185.119 533.027 185.886 536.02 185.886ZM600.146 147.364L584.01 191H577.192L561.055 147.364H568.328L580.374 182.136H580.828L592.874 147.364H600.146ZM620.509 192.023C617.743 192.023 615.234 191.502 612.98 190.46C610.726 189.4 608.937 187.875 607.611 185.886C606.285 183.879 605.622 181.455 605.622 178.614C605.622 176.114 606.115 174.087 607.099 172.534C608.084 170.962 609.401 169.731 611.048 168.841C612.696 167.951 614.514 167.288 616.503 166.852C618.51 166.398 620.527 166.038 622.554 165.773C625.205 165.432 627.355 165.176 629.003 165.006C630.67 164.816 631.882 164.504 632.639 164.068C633.416 163.633 633.804 162.875 633.804 161.795V161.568C633.804 158.765 633.037 156.587 631.503 155.034C629.988 153.481 627.687 152.705 624.599 152.705C621.399 152.705 618.889 153.405 617.071 154.807C615.253 156.208 613.974 157.705 613.236 159.295L606.872 157.023C608.009 154.371 609.524 152.307 611.418 150.83C613.33 149.333 615.414 148.292 617.668 147.705C619.94 147.098 622.175 146.795 624.372 146.795C625.774 146.795 627.384 146.966 629.202 147.307C631.039 147.629 632.81 148.301 634.514 149.324C636.238 150.347 637.668 151.89 638.804 153.955C639.94 156.019 640.509 158.784 640.509 162.25V191H633.804V185.091H633.463C633.009 186.038 632.251 187.051 631.19 188.131C630.13 189.21 628.719 190.129 626.957 190.886C625.196 191.644 623.046 192.023 620.509 192.023ZM621.531 186C624.183 186 626.418 185.479 628.236 184.438C630.073 183.396 631.455 182.051 632.384 180.403C633.33 178.756 633.804 177.023 633.804 175.205V169.068C633.52 169.409 632.895 169.722 631.929 170.006C630.982 170.271 629.884 170.508 628.634 170.716C627.402 170.905 626.2 171.076 625.026 171.227C623.87 171.36 622.933 171.473 622.213 171.568C620.471 171.795 618.842 172.165 617.327 172.676C615.83 173.169 614.618 173.917 613.69 174.92C612.781 175.905 612.327 177.25 612.327 178.955C612.327 181.284 613.188 183.045 614.912 184.239C616.654 185.413 618.861 186 621.531 186ZM351.783 288H344.397L365.761 229.818H373.033L394.397 288H387.011L369.624 239.023H369.17L351.783 288ZM354.511 265.273H384.283V271.523H354.511V265.273ZM420.164 305.273C416.925 305.273 414.141 304.856 411.812 304.023C409.482 303.208 407.541 302.129 405.988 300.784C404.454 299.458 403.232 298.038 402.323 296.523L407.664 292.773C408.27 293.568 409.037 294.477 409.965 295.5C410.893 296.542 412.162 297.441 413.772 298.199C415.401 298.975 417.531 299.364 420.164 299.364C423.687 299.364 426.594 298.511 428.886 296.807C431.177 295.102 432.323 292.432 432.323 288.795V279.932H431.755C431.263 280.727 430.562 281.712 429.653 282.886C428.763 284.042 427.475 285.074 425.789 285.983C424.122 286.873 421.869 287.318 419.028 287.318C415.505 287.318 412.342 286.485 409.539 284.818C406.755 283.152 404.549 280.727 402.92 277.545C401.31 274.364 400.505 270.5 400.505 265.955C400.505 261.485 401.291 257.593 402.863 254.278C404.435 250.945 406.622 248.369 409.425 246.551C412.228 244.714 415.467 243.795 419.141 243.795C421.982 243.795 424.236 244.269 425.903 245.216C427.588 246.144 428.876 247.205 429.766 248.398C430.675 249.572 431.376 250.538 431.869 251.295H432.55V244.364H439.028V289.25C439.028 293 438.175 296.049 436.471 298.398C434.785 300.765 432.513 302.498 429.653 303.597C426.812 304.714 423.649 305.273 420.164 305.273ZM419.937 281.295C422.626 281.295 424.899 280.68 426.755 279.449C428.611 278.218 430.022 276.447 430.988 274.136C431.954 271.826 432.437 269.061 432.437 265.841C432.437 262.697 431.963 259.922 431.016 257.517C430.069 255.112 428.668 253.227 426.812 251.864C424.956 250.5 422.664 249.818 419.937 249.818C417.096 249.818 414.728 250.538 412.835 251.977C410.96 253.417 409.549 255.348 408.602 257.773C407.674 260.197 407.21 262.886 407.21 265.841C407.21 268.871 407.683 271.551 408.63 273.881C409.596 276.191 411.016 278.009 412.891 279.335C414.785 280.642 417.134 281.295 419.937 281.295ZM451.3 288V244.364H457.778V250.955H458.232C459.028 248.795 460.467 247.044 462.55 245.699C464.634 244.354 466.982 243.682 469.596 243.682C470.088 243.682 470.704 243.691 471.442 243.71C472.181 243.729 472.74 243.758 473.119 243.795V250.614C472.891 250.557 472.371 250.472 471.556 250.358C470.761 250.225 469.918 250.159 469.028 250.159C466.906 250.159 465.013 250.604 463.346 251.494C461.698 252.366 460.391 253.578 459.425 255.131C458.478 256.665 458.005 258.417 458.005 260.386V288H451.3ZM497.465 288.909C493.526 288.909 490.069 287.972 487.096 286.097C484.141 284.222 481.831 281.598 480.164 278.227C478.516 274.856 477.692 270.917 477.692 266.409C477.692 261.864 478.516 257.896 480.164 254.506C481.831 251.116 484.141 248.483 487.096 246.608C490.069 244.733 493.526 243.795 497.465 243.795C501.405 243.795 504.852 244.733 507.806 246.608C510.78 248.483 513.09 251.116 514.738 254.506C516.405 257.896 517.238 261.864 517.238 266.409C517.238 270.917 516.405 274.856 514.738 278.227C513.09 281.598 510.78 284.222 507.806 286.097C504.852 287.972 501.405 288.909 497.465 288.909ZM497.465 282.886C500.458 282.886 502.92 282.119 504.852 280.585C506.783 279.051 508.213 277.034 509.141 274.534C510.069 272.034 510.533 269.326 510.533 266.409C510.533 263.492 510.069 260.775 509.141 258.256C508.213 255.737 506.783 253.701 504.852 252.148C502.92 250.595 500.458 249.818 497.465 249.818C494.473 249.818 492.011 250.595 490.079 252.148C488.147 253.701 486.717 255.737 485.789 258.256C484.861 260.775 484.397 263.492 484.397 266.409C484.397 269.326 484.861 272.034 485.789 274.534C486.717 277.034 488.147 279.051 490.079 280.585C492.011 282.119 494.473 282.886 497.465 282.886ZM521.996 236.068V229.818H565.633V236.068H547.337V288H540.292V236.068H521.996ZM587.565 288.909C583.36 288.909 579.733 287.981 576.684 286.125C573.654 284.25 571.315 281.636 569.667 278.284C568.038 274.913 567.224 270.992 567.224 266.523C567.224 262.053 568.038 258.114 569.667 254.705C571.315 251.277 573.606 248.606 576.542 246.693C579.496 244.761 582.943 243.795 586.883 243.795C589.156 243.795 591.4 244.174 593.616 244.932C595.832 245.689 597.849 246.92 599.667 248.625C601.485 250.311 602.934 252.545 604.013 255.33C605.093 258.114 605.633 261.542 605.633 265.614V268.455H571.996V262.659H598.815C598.815 260.197 598.322 258 597.337 256.068C596.371 254.136 594.989 252.612 593.19 251.494C591.409 250.377 589.307 249.818 586.883 249.818C584.212 249.818 581.902 250.481 579.951 251.807C578.019 253.114 576.532 254.818 575.491 256.92C574.449 259.023 573.928 261.277 573.928 263.682V267.545C573.928 270.841 574.496 273.634 575.633 275.926C576.788 278.199 578.388 279.932 580.434 281.125C582.479 282.299 584.856 282.886 587.565 282.886C589.326 282.886 590.917 282.64 592.337 282.148C593.777 281.636 595.017 280.879 596.059 279.875C597.101 278.852 597.906 277.583 598.474 276.068L604.951 277.886C604.269 280.083 603.123 282.015 601.513 283.682C599.904 285.33 597.915 286.617 595.548 287.545C593.18 288.455 590.519 288.909 587.565 288.909ZM633.559 288.909C629.468 288.909 625.945 287.943 622.991 286.011C620.036 284.08 617.763 281.419 616.173 278.028C614.582 274.638 613.786 270.765 613.786 266.409C613.786 261.977 614.601 258.066 616.229 254.676C617.877 251.267 620.169 248.606 623.104 246.693C626.059 244.761 629.506 243.795 633.445 243.795C636.513 243.795 639.279 244.364 641.741 245.5C644.203 246.636 646.22 248.227 647.792 250.273C649.364 252.318 650.339 254.705 650.718 257.432H644.013C643.502 255.443 642.366 253.682 640.604 252.148C638.862 250.595 636.513 249.818 633.559 249.818C630.945 249.818 628.654 250.5 626.684 251.864C624.733 253.208 623.209 255.112 622.11 257.574C621.031 260.017 620.491 262.886 620.491 266.182C620.491 269.553 621.021 272.489 622.082 274.989C623.161 277.489 624.676 279.43 626.627 280.812C628.597 282.195 630.907 282.886 633.559 282.886C635.301 282.886 636.883 282.583 638.303 281.977C639.724 281.371 640.926 280.5 641.911 279.364C642.896 278.227 643.597 276.864 644.013 275.273H650.718C650.339 277.848 649.402 280.169 647.906 282.233C646.428 284.278 644.468 285.907 642.025 287.119C639.601 288.312 636.779 288.909 633.559 288.909ZM667.224 261.75V288H660.519V229.818H667.224V251.182H667.792C668.815 248.928 670.349 247.138 672.394 245.812C674.459 244.468 677.205 243.795 680.633 243.795C683.606 243.795 686.21 244.392 688.445 245.585C690.68 246.759 692.413 248.568 693.644 251.011C694.894 253.436 695.519 256.523 695.519 260.273V288H688.815V260.727C688.815 257.261 687.915 254.581 686.116 252.688C684.335 250.775 681.864 249.818 678.701 249.818C676.504 249.818 674.534 250.282 672.792 251.21C671.068 252.138 669.705 253.492 668.701 255.273C667.716 257.053 667.224 259.212 667.224 261.75Z" fill="#04312C"/>
<path d="M128 260.5L141.5 252L153 244.5L168 235.5L188.5 224L206 215L224.5 207L246.5 199L256.5 195.5L261.5 194H263.5L264.5 195.5L263.5 198L260 209L252.5 224L239 240.5L223 255L205 265.5L188.5 271.5L172.5 273H158.5L148.5 271.5L138 269L128 265.5L125.5 264V262.5L128 260.5Z" fill="#136E43" stroke="#136E43"/>
<path d="M170 52L168.5 62.5L167.5 64L167 59.5L166 54L165 50L163.5 45L161.5 38.5L158.5 33L156 29L152 25L147 22L149.5 25L152 28.5L154 33L156.5 39.5L158.5 45L160.5 53.5L161.5 57.5L162 60.5V62V64L161.5 68L158.5 67L154 65L146.5 59.5L140 52L136.5 45L133 31.5L132.5 20.5L133 12L134.5 1L136.5 1.5L140 3L146.5 7L153 12L158.5 16.5L163.5 21.5L167 27.5L170 37.5L170.5 45L170 52Z" fill="#459443" stroke="#459443"/>
<path d="M78.5 222.5L80.5 221L105 208.5L153.5 189L191 178L227.5 170.5L252.5 166L262 165L266.5 166L267.5 168.5V179L266.5 181.5L264.5 182.5L215 199L192 210L170 222.5L143 238L124.5 250.5L116 257L113.5 258L111 257L107 254L96 245.5L88.5 238L82 230L79.5 225.5L78.5 224V222.5Z" fill="#459443" stroke="#459443"/>
<path d="M63 177L62.5 161L63 159.5L65.5 158.5L73 156.5L95 149.5L122.5 144.5L144.5 141.5L153.5 140.5L155.5 139.5L156 136.5L156.5 129L157.5 110.5L159.5 96.5L168 77L180 62L192.5 52.5L204.5 47L224.5 41.5L241 40.5L238.5 59L234 73.5L224.5 89L210 102.5L203.5 107L186 113L172.5 114.5V113L173.5 104L177.5 94L183 83L190.5 73L199.5 64L208.5 57L203 59L191.5 65.5L182.5 73.5L175.5 82L167 99.5L164.5 109.5V120.5V135.5L165 139L166.5 139.5H228L251 140.5L265 141.5L267 142L267.5 143.5V153.5L267 154.5L265.5 155L256 155.5L233 159L212 162.5L199.5 165.5L180 170.5L160 176L147.5 180L137 183.5L124 188.5L105.5 196L86.5 206L76.5 211.5L73 212L71 210.5L67 201.5L64.5 193.5L63 177Z" fill="#7FBD42" stroke="#7FBD42"/>
<path d="M144.5 107.5L146.5 112V113H145L137.5 112L131.5 111L125 109L118 105.5L114.5 103.5L110 99.5L107.5 97L100.5 88L95 78L91 67.5L88 52.5L102 53.5L111.5 54.5L121.5 57L129.5 60L135 64.5L141.5 71.5L146.5 80L149.5 88L150.5 96V100L149.5 105.5L147.5 101.5L145 97L140.5 90L136 83L131.5 78L126 73L119.5 68.5L110.5 65.5L113 67.5L116.5 71.5L120.5 75.5L124 80L128.5 85L132.5 90L136 95L140.5 101.5L144.5 107.5Z" fill="#136E43" stroke="#136E43"/>
<path fill-rule="evenodd" clip-rule="evenodd" d="M164.5 280.5C230.148 280.5 283.38 220.417 283.5 146.25L284 146H292.5L310.5 146.5H311.5H323L327 149L329 153V175.5V181L327 185.5L323 188.5L317 191H314.78C312.432 213.724 304.428 234.884 292.114 253.21L292.5 253.5L295 257.5L296.5 262V265L295 270L287 279L271.5 294L267.5 298L265 299H261.5L257 298L251.546 293.455C233.806 305.285 213.244 313.597 191 317.313V321.5L189.5 324.5L185 328.5L179 330.5H151L144.5 328.5L140 324.5L138.5 321.5V317.396C118.119 314.058 99.14 306.864 82.4368 296.639L80.5 297.5L74.5 300.5L71 302H65L59.5 300.5L35 276.5L33 270.5V265.5L35 260L38.1636 255.079C25.4031 236.728 17.0112 215.43 14.3829 192.5H12L9.5 192L5.5 190.5L3.5 189L2 187L0.5 185L0 183.5V181V177.5L0.5 175L1.5 173.5L6.5 172L13.5 170.5H13.6543C13.6616 170.346 13.6692 170.192 13.6771 170.038L16.5 169.5L28.5 166.5L40 164.5L46 163.5L46.5129 163.628C54.1516 229.58 104.065 280.5 164.5 280.5Z" fill="#04312C"/>
</svg>
