<svg width="274" height="354" viewBox="0 0 274 354" fill="none" xmlns="http://www.w3.org/2000/svg">
<rect width="274" height="354" fill="#F5F5F5"/>
<path d="M5.69482 263.644V301H0.833984V263.644H5.69482ZM31.9326 287.384C31.9326 281.637 29.8737 278.764 25.7559 278.764C24.6995 278.764 23.7327 279.05 22.8555 279.623C21.5127 280.482 20.4564 281.897 19.6865 283.866C19.418 284.547 19.2837 285.084 19.2837 285.478V301H14.96V275.81H19.2837V280.429C20.895 277.027 23.5179 275.326 27.1523 275.326C28.6204 275.326 29.9364 275.657 31.1001 276.32C32.2817 276.964 33.2038 277.663 33.8662 278.415C35.4596 280.187 36.2563 282.676 36.2563 285.88V301H31.9326V287.384ZM62.0645 287.384C62.0645 281.637 60.0055 278.764 55.8877 278.764C54.8314 278.764 53.8646 279.05 52.9873 279.623C51.6445 280.482 50.5882 281.897 49.8184 283.866C49.5498 284.547 49.4155 285.084 49.4155 285.478V301H45.0918V275.81H49.4155V280.429C51.0269 277.027 53.6497 275.326 57.2842 275.326C58.7523 275.326 60.0682 275.657 61.2319 276.32C62.4136 276.964 63.3356 277.663 63.998 278.415C65.5915 280.187 66.3882 282.676 66.3882 285.88V301H62.0645V287.384ZM76.7812 288.405C76.7812 290.141 76.9961 291.663 77.4258 292.97C77.8734 294.259 78.4642 295.262 79.1982 295.978C79.9502 296.676 80.7559 297.195 81.6152 297.536C82.4925 297.858 83.4235 298.019 84.4082 298.019C86.4134 298.019 88.1411 297.33 89.5913 295.951C91.1847 294.429 91.9814 291.914 91.9814 288.405C91.9814 284.914 91.1847 282.389 89.5913 280.832C88.1232 279.471 86.3955 278.791 84.4082 278.791C82.3851 278.791 80.6574 279.471 79.2251 280.832C77.5959 282.389 76.7812 284.914 76.7812 288.405ZM72.4575 288.405C72.4575 282.98 74.2031 279.202 77.6943 277.072C79.6279 275.908 81.8659 275.326 84.4082 275.326C86.9326 275.326 89.1795 275.908 91.1489 277.072C92.1873 277.716 93.0915 278.522 93.8613 279.489C95.5264 281.673 96.3589 284.645 96.3589 288.405C96.3589 293.847 94.6222 297.616 91.1489 299.711C89.2153 300.893 86.9684 301.483 84.4082 301.483C81.8301 301.483 79.5921 300.893 77.6943 299.711C76.638 299.084 75.7249 298.279 74.9551 297.294C73.29 295.163 72.4575 292.2 72.4575 288.405ZM119.508 275.81H123.859L112.66 301H109.813L98.561 275.81H103.207L111.371 293.856L119.508 275.81ZM140.67 289.667C134.082 289.667 130.788 291.305 130.788 294.582C130.788 295.459 131.056 296.273 131.593 297.025C132.148 297.777 132.775 298.153 133.473 298.153H134.521C138.459 298.153 140.563 296.085 140.832 291.95V289.667H140.67ZM128.317 277.018C131.54 275.89 134.18 275.326 136.239 275.326C138.298 275.326 140.097 275.836 141.637 276.857C143.177 277.877 144.206 279.39 144.726 281.396C145.012 282.523 145.155 284.824 145.155 288.297V296.703C145.155 298.279 145.281 299.711 145.531 301H141.181C140.948 300.266 140.832 299.433 140.832 298.502V298.314C140.384 298.852 139.892 299.317 139.354 299.711C137.672 300.946 135.881 301.564 133.983 301.564C130.797 301.564 128.603 300.427 127.404 298.153C126.777 297.025 126.464 295.871 126.464 294.689C126.464 291.556 128.299 289.291 131.969 287.895C134.171 287.053 136.964 286.632 140.348 286.632H140.832V283.92C140.832 281.951 140.456 280.608 139.704 279.892C138.826 279.068 137.367 278.656 135.326 278.656C133.285 278.656 131.02 279.229 128.532 280.375L128.317 277.018ZM189.118 290.15H174.401L170.373 301H165.861L179.879 263.644H183.908L197.926 301H193.146L189.118 290.15ZM187.721 286.391L181.759 270.277L175.771 286.391H187.721ZM212.938 278.791C210.11 278.791 208.301 280.106 207.514 282.738C207.299 283.419 207.191 284.117 207.191 284.833C207.191 286.319 207.648 287.536 208.561 288.485C209.474 289.416 210.933 289.882 212.938 289.882C215.767 289.882 217.576 288.664 218.363 286.229C218.578 285.603 218.686 284.976 218.686 284.35C218.686 283.043 218.265 281.825 217.423 280.697C216.439 279.426 214.944 278.791 212.938 278.791ZM221.344 279.247C222.454 280.823 223.009 282.514 223.009 284.323C223.009 287.259 221.917 289.595 219.733 291.332C218.068 292.675 215.803 293.346 212.938 293.346C211.399 293.346 210.02 293.185 208.803 292.863C207.746 293.668 207.218 294.582 207.218 295.602C207.218 297.016 209.519 297.724 214.12 297.724C219.42 297.724 222.794 299.004 224.245 301.564C224.692 302.352 224.916 303.247 224.916 304.25C224.916 306.452 224.298 308.314 223.063 309.835C220.7 312.754 216.716 314.213 211.112 314.213C208.266 314.213 205.947 313.64 204.157 312.494C202.384 311.348 201.498 309.674 201.498 307.472C201.498 305.234 202.411 303.372 204.237 301.886C204.774 301.457 205.437 301 206.225 300.517C204.005 299.765 202.895 298.404 202.895 296.435C202.895 295.701 203.145 294.877 203.646 293.964C204.148 293.051 204.909 292.236 205.929 291.52C203.942 290.088 202.921 287.895 202.868 284.94V284.779C202.868 282.47 203.593 280.384 205.043 278.522C205.795 277.555 206.851 276.785 208.212 276.212C209.573 275.622 211.014 275.326 212.536 275.326C214.075 275.326 215.391 275.487 216.483 275.81H224.916V279.247H221.344ZM210.36 301.161C208.624 302.128 207.46 303.014 206.869 303.82C206.171 304.751 205.822 305.736 205.822 306.774C205.822 307.812 206.135 308.627 206.762 309.218C207.836 310.238 209.555 310.749 211.918 310.749C215.176 310.749 217.629 309.943 219.276 308.332C220.154 307.472 220.592 306.425 220.592 305.189C220.592 303.918 220.091 302.996 219.088 302.423C218.014 301.85 216.976 301.51 215.973 301.403C214.612 301.26 213.431 301.188 212.428 301.188C211.444 301.188 210.754 301.179 210.36 301.161ZM230.448 301V275.81H234.772V280.429C235.417 279.032 236.33 277.833 237.511 276.83C238.711 275.827 240.062 275.326 241.566 275.326C243.088 275.326 244.333 275.595 245.299 276.132C246.284 276.651 246.938 277.206 247.26 277.797L245.434 280.536C245.183 280.214 244.941 279.945 244.708 279.73C244.046 279.086 243.07 278.764 241.781 278.764C240.492 278.764 239.328 279.175 238.29 279.999C237.252 280.84 236.428 281.861 235.819 283.061C235.211 284.26 234.861 285.46 234.772 286.659V301H230.448ZM254.296 288.405C254.296 290.141 254.511 291.663 254.94 292.97C255.388 294.259 255.979 295.262 256.713 295.978C257.465 296.676 258.271 297.195 259.13 297.536C260.007 297.858 260.938 298.019 261.923 298.019C263.928 298.019 265.656 297.33 267.106 295.951C268.699 294.429 269.496 291.914 269.496 288.405C269.496 284.914 268.699 282.389 267.106 280.832C265.638 279.471 263.91 278.791 261.923 278.791C259.9 278.791 258.172 279.471 256.74 280.832C255.111 282.389 254.296 284.914 254.296 288.405ZM249.972 288.405C249.972 282.98 251.718 279.202 255.209 277.072C257.143 275.908 259.381 275.326 261.923 275.326C264.447 275.326 266.694 275.908 268.664 277.072C269.702 277.716 270.606 278.522 271.376 279.489C273.041 281.673 273.874 284.645 273.874 288.405C273.874 293.847 272.137 297.616 268.664 299.711C266.73 300.893 264.483 301.483 261.923 301.483C259.345 301.483 257.107 300.893 255.209 299.711C254.153 299.084 253.24 298.279 252.47 297.294C250.805 295.163 249.972 292.2 249.972 288.405Z" fill="#0A4F2E"/>
<path d="M89.5308 315.644H118.239V319.377H106.315V353H101.455V319.377H89.5308V315.644ZM130.646 330.764C128.158 330.764 126.296 331.516 125.061 333.02C124.201 334.058 123.637 335.526 123.369 337.424H136.394C136.232 335.472 135.651 333.87 134.648 332.617C133.627 331.381 132.294 330.764 130.646 330.764ZM139.724 351.523C137.79 352.83 135.176 353.483 131.882 353.483C127.71 353.483 124.497 352.293 122.241 349.912C119.985 347.53 118.857 344.361 118.857 340.405C118.857 335.249 120.531 331.516 123.879 329.206C125.741 327.953 127.818 327.326 130.109 327.326C133.654 327.326 136.34 328.526 138.166 330.925C139.706 332.984 140.529 335.687 140.637 339.035L139.992 340.646H123.181C123.216 343.618 124.013 345.928 125.571 347.575C127.128 349.204 129.205 350.019 131.801 350.019C133.771 350.019 136.027 349.491 138.569 348.435L139.724 351.523ZM157.207 350.019C159.301 350.019 161.315 349.312 163.249 347.897L164.914 350.798C163.5 351.836 162.237 352.543 161.127 352.919C160.017 353.295 158.343 353.483 156.105 353.483C152.417 353.483 149.49 352.293 147.324 349.912C145.175 347.53 144.101 344.361 144.101 340.405C144.101 336.448 145.175 333.279 147.324 330.898C149.49 328.517 152.417 327.326 156.105 327.326C158.343 327.326 160.017 327.514 161.127 327.89C162.237 328.266 163.5 328.973 164.914 330.012L163.249 332.912C161.315 331.498 159.301 330.791 157.207 330.791H157.045C154.431 330.791 152.337 331.73 150.761 333.61C149.204 335.49 148.425 337.755 148.425 340.405C148.425 343.055 149.204 345.319 150.761 347.199C152.337 349.079 154.431 350.019 157.045 350.019H157.207ZM187.688 339.384C187.688 333.637 185.629 330.764 181.511 330.764C180.454 330.764 179.488 331.05 178.61 331.623C177.268 332.482 176.211 333.897 175.441 335.866C175.173 336.547 175.039 337.084 175.039 337.478V353H170.715V313.388H175.039V332.429C176.65 329.027 179.273 327.326 182.907 327.326C184.375 327.326 185.691 327.657 186.855 328.32C188.037 328.964 188.959 329.663 189.621 330.415C191.215 332.187 192.011 334.676 192.011 337.88V353H187.688V339.384Z" fill="#0A4F2E"/>
<path fill-rule="evenodd" clip-rule="evenodd" d="M29.0095 137.519C29.0032 138.012 29 138.506 29 139C29 199.751 77.1294 249 136.5 249C195.871 249 244 199.751 244 139C244 132.87 243.51 126.857 242.568 121H230.474C231.476 126.677 232 132.526 232 138.5C232 192.348 189.467 236 137 236C84.5329 236 42 192.348 42 138.5C42 137.357 42.0192 136.218 42.0572 135.085L29.0095 137.519Z" fill="#04312C"/>
<path d="M119.5 88.5L121.5 92.5V93H116L107 91.5L99.5 88.5L93.5 84.5L87.5 78.5L82 71.5L78 63L74 51.5L72.5 43H82L90.5 44.5L96.5 45.5L104.5 48.5L111.5 53L117 59L122 69L124 77.5L124.5 83.5V88.5L122 83.5L119.5 78.5L115.5 72.5L110.5 66L105.5 61L99.5 56.5L92 54.5L97.5 60L102.5 66L107 71.5L111.5 77L115.5 82.5L119.5 88.5Z" fill="#459443"/>
<path d="M65 185L65.5 183.5L70.5 180.5L76 178L85.5 173.5L98 167.5L108 163.5L121 159L132 155L153 149.5L183 142L200.5 138.5L212 137L218 136.5H220L221 138.5V144.5V149.5L220 150.5C219.167 150.667 217.4 151 217 151C216.6 151 213.833 151.667 212.5 152L199.5 156L168.5 169L151 178.5L138.5 185L120 196L109.5 203L102 208.5L96.5 212L94.5 213H92.5L91 212L86 208.5L81 204.5L76.5 200L71.5 194.5L67.5 189.5L65.5 186.5L65 185Z" fill="#459443"/>
<path d="M119.5 88.5L121.5 92.5V93H116L107 91.5L99.5 88.5L93.5 84.5L87.5 78.5L82 71.5L78 63L74 51.5L72.5 43H82L90.5 44.5L96.5 45.5L104.5 48.5L111.5 53L117 59L122 69L124 77.5L124.5 83.5V88.5L122 83.5L119.5 78.5L115.5 72.5L110.5 66L105.5 61L99.5 56.5L92 54.5L97.5 60L102.5 66L107 71.5L111.5 77L115.5 82.5L119.5 88.5Z" stroke="black"/>
<path d="M65 185L65.5 183.5L70.5 180.5L76 178L85.5 173.5L98 167.5L108 163.5L121 159L132 155L153 149.5L183 142L200.5 138.5L212 137L218 136.5H220L221 138.5V144.5V149.5L220 150.5C219.167 150.667 217.4 151 217 151C216.6 151 213.833 151.667 212.5 152L199.5 156L168.5 169L151 178.5L138.5 185L120 196L109.5 203L102 208.5L96.5 212L94.5 213H92.5L91 212L86 208.5L81 204.5L76.5 200L71.5 194.5L67.5 189.5L65.5 186.5L65 185Z" stroke="black"/>
<path d="M134.5 52V56.5L133.5 56L130 54.5L125 51.5L121.5 48L118 44L115.5 40.5L112 32.5L110.5 23V14.5L111 6L111.5 1L115 2.5L118.5 4L122.5 6.5L125.5 8.5L132 14L136.5 18.5L137.5 20.5L138.5 23L139.5 28L140.5 37.5L140 44L139 51.5L138.5 49.5L137.5 42L136.5 38.5L135.5 35L132.5 28.5L129 23.5L127 21L125 19L123.5 18L121.5 17.5H119L121.5 19L124.5 23L127.5 28.5L130 36L131.5 40.5L133 45L134.5 52Z" fill="#459443" stroke="black"/>
<path d="M103 218L104.5 216.5L111.5 212L125 203L146.5 190.5L164.5 180.5L176 175.5L194 167.5L209 162L217 160.5H219V162C218 164.5 216 169.7 216 170.5C216 171.3 209.333 182.833 206 188.5L196.5 200L180 212L167 219L155 223L138 224.5H127.5L114 222L104.5 219L103 218Z" fill="#136E43" stroke="black"/>
<path d="M52 145.5V132.5L52.5 131.5L54 131L56.5 130.5L63 129L75 125.5L88.5 122L101.5 119.5L112 118.5L119 117.5L124.5 117L128 116L129.5 115L130 112V93.5L131 87.5L132 83L133 78L134 74L135 70.5L137.5 66.5L140 62.5L142.5 59L144 57.5L148.5 52.5L155 47L161 43.5L168 40L174 37.5L183 34.5L190 34H200L199 40.5L198.5 44.5L197.5 48.5L196.5 52.5L195.5 56L194 60.5L192.5 64L190 68.5L185.5 74L180.5 80L174.5 85L164 90.5L156 93.5L150 95H145L142.5 94.5L143 92.5L144 88L144.5 85L146 80L148 75.5L152 68.5L156 63.5L159.5 59L162 56L166.5 52.5L169.5 50.5L172.5 48.5H171L168.5 49.5L166 50.5L164 51.5L162 52.5L157.5 56L152 62.5L145.5 71.5L143 75.5L141.5 78L140 81L139 83.5L138.5 85L137 89L136 94.5L135.5 108.5V115.5L137 116L161.5 115.5L199.5 116.5H212H219L220.5 117.5L221.5 119V124.5L220.5 127L219 128L205 129L187 131.5L172 135L165 136.5L153 139L145 141L134 144.5L129.5 146L120 149L106 154.5L97 158.5L87 163L81.5 165.5L76 168L71.5 170.5L67 173L63.5 175L61 176L59.5 175L58.5 172L57 168.5L55.5 164.5L54.5 160.5L53.5 156L52.5 151.5L52 145.5Z" fill="#7FBD42" stroke="black"/>
</svg>
