<svg width="609" height="281" viewBox="0 0 609 281" fill="none" xmlns="http://www.w3.org/2000/svg">
<rect width="609" height="281" fill="#F5F5F5"/>
<path d="M359.796 113.091V164H353.632V113.091H359.796ZM377.228 141.031V164H371.362V125.818H377.029V131.784H377.526C378.421 129.845 379.78 128.287 381.603 127.111C383.426 125.918 385.779 125.321 388.663 125.321C391.248 125.321 393.51 125.851 395.449 126.912C397.388 127.956 398.896 129.547 399.973 131.685C401.05 133.806 401.589 136.491 401.589 139.739V164H395.722V140.136C395.722 137.137 394.943 134.8 393.386 133.126C391.828 131.436 389.69 130.591 386.972 130.591C385.1 130.591 383.426 130.997 381.951 131.809C380.493 132.621 379.341 133.806 378.496 135.364C377.651 136.921 377.228 138.811 377.228 141.031ZM418.175 141.031V164H412.309V125.818H417.976V131.784H418.474C419.368 129.845 420.727 128.287 422.55 127.111C424.373 125.918 426.726 125.321 429.61 125.321C432.195 125.321 434.457 125.851 436.396 126.912C438.335 127.956 439.843 129.547 440.92 131.685C441.997 133.806 442.536 136.491 442.536 139.739V164H436.67V140.136C436.67 137.137 435.891 134.8 434.333 133.126C432.775 131.436 430.637 130.591 427.92 130.591C426.047 130.591 424.373 130.997 422.898 131.809C421.44 132.621 420.288 133.806 419.443 135.364C418.598 136.921 418.175 138.811 418.175 141.031ZM468.767 164.795C465.32 164.795 462.296 163.975 459.694 162.335C457.109 160.694 455.087 158.399 453.629 155.449C452.187 152.499 451.466 149.052 451.466 145.108C451.466 141.131 452.187 137.659 453.629 134.692C455.087 131.726 457.109 129.423 459.694 127.782C462.296 126.141 465.32 125.321 468.767 125.321C472.214 125.321 475.23 126.141 477.816 127.782C480.417 129.423 482.439 131.726 483.881 134.692C485.339 137.659 486.069 141.131 486.069 145.108C486.069 149.052 485.339 152.499 483.881 155.449C482.439 158.399 480.417 160.694 477.816 162.335C475.23 163.975 472.214 164.795 468.767 164.795ZM468.767 159.526C471.386 159.526 473.54 158.854 475.23 157.512C476.921 156.17 478.172 154.405 478.984 152.217C479.796 150.03 480.202 147.66 480.202 145.108C480.202 142.556 479.796 140.178 478.984 137.974C478.172 135.77 476.921 133.988 475.23 132.629C473.54 131.27 471.386 130.591 468.767 130.591C466.149 130.591 463.995 131.27 462.304 132.629C460.614 133.988 459.363 135.77 458.551 137.974C457.739 140.178 457.333 142.556 457.333 145.108C457.333 147.66 457.739 150.03 458.551 152.217C459.363 154.405 460.614 156.17 462.304 157.512C463.995 158.854 466.149 159.526 468.767 159.526ZM524.878 125.818L510.759 164H504.793L490.673 125.818H497.037L507.577 156.244H507.975L518.514 125.818H524.878ZM542.695 164.895C540.275 164.895 538.08 164.439 536.108 163.528C534.136 162.6 532.569 161.266 531.409 159.526C530.249 157.769 529.669 155.648 529.669 153.162C529.669 150.974 530.1 149.201 530.962 147.842C531.824 146.467 532.975 145.39 534.417 144.611C535.859 143.832 537.45 143.252 539.19 142.871C540.947 142.473 542.712 142.158 544.485 141.926C546.805 141.628 548.686 141.404 550.127 141.255C551.586 141.089 552.646 140.816 553.309 140.435C553.989 140.054 554.328 139.391 554.328 138.446V138.247C554.328 135.795 553.657 133.889 552.315 132.53C550.989 131.171 548.976 130.491 546.275 130.491C543.474 130.491 541.278 131.105 539.687 132.331C538.096 133.557 536.978 134.866 536.331 136.259L530.763 134.27C531.757 131.95 533.083 130.143 534.74 128.851C536.414 127.542 538.237 126.63 540.209 126.116C542.198 125.586 544.153 125.321 546.076 125.321C547.302 125.321 548.711 125.47 550.301 125.768C551.909 126.05 553.458 126.638 554.95 127.533C556.458 128.428 557.709 129.779 558.703 131.585C559.698 133.392 560.195 135.811 560.195 138.844V164H554.328V158.83H554.03C553.632 159.658 552.97 160.545 552.042 161.489C551.114 162.434 549.879 163.238 548.338 163.901C546.797 164.563 544.916 164.895 542.695 164.895ZM543.59 159.625C545.91 159.625 547.865 159.169 549.456 158.258C551.064 157.346 552.274 156.17 553.086 154.728C553.914 153.286 554.328 151.77 554.328 150.179V144.81C554.08 145.108 553.533 145.381 552.688 145.63C551.859 145.862 550.898 146.069 549.804 146.251C548.727 146.417 547.675 146.566 546.647 146.699C545.636 146.815 544.816 146.914 544.186 146.997C542.662 147.196 541.237 147.519 539.911 147.967C538.602 148.397 537.541 149.052 536.729 149.93C535.934 150.792 535.536 151.969 535.536 153.46C535.536 155.499 536.29 157.04 537.798 158.084C539.323 159.111 541.253 159.625 543.59 159.625ZM307.56 249H301.097L319.791 198.091H326.154L344.847 249H338.384L323.171 206.145H322.774L307.56 249ZM309.947 229.114H335.998V234.582H309.947V229.114ZM367.394 264.114C364.56 264.114 362.124 263.749 360.085 263.02C358.047 262.307 356.348 261.363 354.989 260.186C353.647 259.026 352.578 257.783 351.783 256.457L356.456 253.176C356.986 253.872 357.658 254.668 358.47 255.562C359.282 256.474 360.392 257.261 361.801 257.924C363.226 258.603 365.09 258.943 367.394 258.943C370.476 258.943 373.02 258.197 375.025 256.706C377.03 255.214 378.033 252.878 378.033 249.696V241.94H377.536C377.105 242.636 376.492 243.498 375.696 244.526C374.917 245.536 373.79 246.44 372.315 247.235C370.857 248.014 368.885 248.403 366.399 248.403C363.317 248.403 360.549 247.674 358.097 246.216C355.661 244.758 353.73 242.636 352.305 239.852C350.896 237.068 350.192 233.687 350.192 229.71C350.192 225.799 350.88 222.394 352.255 219.494C353.631 216.577 355.545 214.323 357.997 212.732C360.45 211.125 363.284 210.321 366.499 210.321C368.984 210.321 370.957 210.735 372.415 211.564C373.89 212.376 375.017 213.304 375.796 214.348C376.591 215.375 377.204 216.221 377.635 216.884H378.232V210.818H383.899V250.094C383.899 253.375 383.154 256.043 381.662 258.098C380.187 260.17 378.198 261.686 375.696 262.647C373.21 263.625 370.443 264.114 367.394 264.114ZM367.195 243.134C369.548 243.134 371.537 242.595 373.161 241.518C374.785 240.441 376.019 238.891 376.864 236.869C377.71 234.848 378.132 232.428 378.132 229.611C378.132 226.86 377.718 224.432 376.889 222.327C376.061 220.223 374.834 218.574 373.21 217.381C371.586 216.187 369.581 215.591 367.195 215.591C364.709 215.591 362.637 216.221 360.98 217.48C359.34 218.74 358.105 220.43 357.276 222.551C356.464 224.672 356.058 227.026 356.058 229.611C356.058 232.262 356.473 234.607 357.301 236.646C358.146 238.667 359.389 240.258 361.03 241.418C362.687 242.562 364.742 243.134 367.195 243.134ZM394.638 249V210.818H400.305V216.585H400.703C401.399 214.696 402.659 213.163 404.482 211.987C406.305 210.81 408.359 210.222 410.646 210.222C411.077 210.222 411.616 210.23 412.262 210.246C412.908 210.263 413.397 210.288 413.729 210.321V216.287C413.53 216.237 413.074 216.163 412.362 216.063C411.666 215.947 410.928 215.889 410.149 215.889C408.293 215.889 406.636 216.279 405.178 217.058C403.736 217.82 402.592 218.88 401.747 220.239C400.919 221.582 400.504 223.115 400.504 224.838V249H394.638ZM435.032 249.795C431.585 249.795 428.561 248.975 425.959 247.335C423.374 245.694 421.352 243.399 419.894 240.449C418.452 237.499 417.731 234.052 417.731 230.108C417.731 226.131 418.452 222.659 419.894 219.692C421.352 216.726 423.374 214.423 425.959 212.782C428.561 211.141 431.585 210.321 435.032 210.321C438.479 210.321 441.495 211.141 444.08 212.782C446.682 214.423 448.704 216.726 450.146 219.692C451.604 222.659 452.333 226.131 452.333 230.108C452.333 234.052 451.604 237.499 450.146 240.449C448.704 243.399 446.682 245.694 444.08 247.335C441.495 248.975 438.479 249.795 435.032 249.795ZM435.032 244.526C437.65 244.526 439.805 243.854 441.495 242.512C443.185 241.17 444.437 239.405 445.249 237.217C446.061 235.03 446.467 232.66 446.467 230.108C446.467 227.556 446.061 225.178 445.249 222.974C444.437 220.77 443.185 218.988 441.495 217.629C439.805 216.27 437.65 215.591 435.032 215.591C432.414 215.591 430.259 216.27 428.569 217.629C426.879 218.988 425.627 220.77 424.815 222.974C424.003 225.178 423.597 227.556 423.597 230.108C423.597 232.66 424.003 235.03 424.815 237.217C425.627 239.405 426.879 241.17 428.569 242.512C430.259 243.854 432.414 244.526 435.032 244.526ZM456.497 203.56V198.091H494.679V203.56H478.67V249H472.505V203.56H456.497ZM513.869 249.795C510.19 249.795 507.017 248.983 504.348 247.359C501.697 245.719 499.65 243.432 498.209 240.499C496.783 237.549 496.071 234.118 496.071 230.207C496.071 226.296 496.783 222.849 498.209 219.866C499.65 216.867 501.656 214.53 504.224 212.857C506.809 211.166 509.825 210.321 513.272 210.321C515.261 210.321 517.225 210.652 519.164 211.315C521.103 211.978 522.868 213.055 524.459 214.547C526.049 216.022 527.317 217.977 528.262 220.413C529.206 222.849 529.679 225.849 529.679 229.412V231.898H500.247V226.827H523.713C523.713 224.672 523.282 222.75 522.42 221.06C521.575 219.369 520.365 218.035 518.791 217.058C517.233 216.08 515.394 215.591 513.272 215.591C510.936 215.591 508.914 216.171 507.207 217.331C505.517 218.474 504.216 219.966 503.304 221.805C502.393 223.645 501.937 225.617 501.937 227.722V231.102C501.937 233.986 502.434 236.43 503.429 238.435C504.44 240.424 505.84 241.94 507.63 242.984C509.419 244.012 511.499 244.526 513.869 244.526C515.41 244.526 516.802 244.31 518.045 243.879C519.305 243.432 520.39 242.769 521.302 241.891C522.213 240.996 522.917 239.885 523.415 238.56L529.082 240.151C528.486 242.073 527.483 243.763 526.074 245.222C524.666 246.663 522.926 247.79 520.854 248.602C518.783 249.398 516.454 249.795 513.869 249.795ZM554.114 249.795C550.535 249.795 547.452 248.95 544.867 247.26C542.282 245.57 540.293 243.241 538.901 240.275C537.509 237.308 536.813 233.92 536.813 230.108C536.813 226.23 537.526 222.808 538.951 219.842C540.392 216.859 542.398 214.53 544.966 212.857C547.552 211.166 550.568 210.321 554.015 210.321C556.699 210.321 559.119 210.818 561.273 211.812C563.428 212.807 565.192 214.199 566.568 215.989C567.943 217.778 568.797 219.866 569.128 222.253H563.262C562.814 220.513 561.82 218.972 560.279 217.629C558.754 216.27 556.699 215.591 554.114 215.591C551.827 215.591 549.822 216.187 548.098 217.381C546.392 218.557 545.057 220.223 544.096 222.377C543.152 224.515 542.679 227.026 542.679 229.909C542.679 232.859 543.143 235.428 544.071 237.615C545.016 239.803 546.342 241.501 548.049 242.711C549.772 243.921 551.794 244.526 554.114 244.526C555.639 244.526 557.022 244.26 558.265 243.73C559.508 243.2 560.561 242.438 561.422 241.443C562.284 240.449 562.897 239.256 563.262 237.864H569.128C568.797 240.117 567.977 242.147 566.667 243.954C565.375 245.744 563.66 247.169 561.522 248.229C559.401 249.273 556.931 249.795 554.114 249.795ZM583.571 226.031V249H577.704V198.091H583.571V216.784H584.068C584.963 214.812 586.305 213.246 588.095 212.086C589.901 210.909 592.304 210.321 595.304 210.321C597.906 210.321 600.184 210.843 602.14 211.887C604.095 212.915 605.611 214.497 606.689 216.635C607.782 218.756 608.329 221.457 608.329 224.739V249H602.463V225.136C602.463 222.104 601.676 219.759 600.101 218.102C598.544 216.428 596.381 215.591 593.613 215.591C591.691 215.591 589.968 215.997 588.443 216.809C586.935 217.621 585.742 218.806 584.863 220.364C584.002 221.921 583.571 223.811 583.571 226.031Z" fill="#04312C"/>
<path d="M112.176 221.399L123.928 214.19L133.939 207.829L146.996 200.196L164.842 190.443L180.076 182.81L196.18 176.025L215.331 169.241L224.036 166.272L228.388 165H230.129L231 166.272L230.129 168.392L227.083 177.722L220.554 190.443L208.802 204.437L194.874 216.734L179.205 225.639L164.842 230.728L150.914 232H138.727L130.022 230.728L120.881 228.608L112.176 225.639L110 224.367V223.095L112.176 221.399Z" fill="#136E43" stroke="#136E43"/>
<path d="M148.566 44.3881L147.263 53.3209L146.395 54.597L145.961 50.7687L145.092 46.0896L144.224 42.6866L142.921 38.4328L141.184 32.903L138.579 28.2239L136.408 24.8209L132.934 21.4179L128.592 18.8657L130.763 21.4179L132.934 24.3955L134.671 28.2239L136.842 33.7537L138.579 38.4328L140.316 45.6642L141.184 49.0672L141.618 51.6194V52.8955V54.597L141.184 58L138.579 57.1493L134.671 55.4478L128.158 50.7687L122.513 44.3881L119.474 38.4328L116.434 26.9478L116 17.5896L116.434 10.3582L117.737 1L119.474 1.42537L122.513 2.70149L128.158 6.10448L133.803 10.3582L138.579 14.1866L142.921 18.4403L145.961 23.5448L148.566 32.0522L149 38.4328L148.566 44.3881Z" fill="#459443" stroke="#459443"/>
<path d="M69 188.844L70.746 187.57L92.1349 176.952L134.476 160.387L167.214 151.043L199.079 144.672L220.905 140.849L229.198 140L233.127 140.849L234 142.973V151.892L233.127 154.016L231.381 154.866L188.167 168.882L168.087 178.226L148.881 188.844L125.31 202.011L109.159 212.629L101.738 218.151L99.5556 219L97.373 218.151L93.881 215.602L84.2778 208.382L77.7302 202.011L72.0556 195.215L69.873 191.392L69 190.118V188.844Z" fill="#459443" stroke="#459443"/>
<path d="M54.439 150.408L54 136.88L54.439 135.612L56.6341 134.767L63.2195 133.076L82.5366 127.157L106.683 122.93L126 120.394L133.902 119.548L135.659 118.703L136.098 116.166L136.537 109.825L137.415 94.1837L139.171 82.3469L146.634 65.8601L157.171 53.1778L168.146 45.1458L178.683 40.4956L196.244 35.8455L210.732 35L208.537 50.6414L204.585 62.9009L196.244 76.0058L183.512 87.4198L177.805 91.2245L162.439 96.2974L150.585 97.5656V96.2974L151.463 88.688L154.976 80.2332L159.805 70.9329L166.39 62.4781L174.293 54.8688L182.195 48.9504L177.366 50.6414L167.268 56.137L159.366 62.9009L153.22 70.0875L145.756 84.8834L143.561 93.3382V102.638V115.321L144 118.28L145.317 118.703H199.317L219.512 119.548L231.805 120.394L233.561 120.816L234 122.085V130.539L233.561 131.385L232.244 131.808L223.902 132.23L203.707 135.19L185.268 138.149L174.293 140.685L157.171 144.913L139.61 149.563L128.634 152.945L119.415 155.904L108 160.131L91.7561 166.472L75.0732 174.927L66.2927 179.577L63.2195 180L61.4634 178.732L57.9512 171.122L55.7561 164.359L54.439 150.408Z" fill="#7FBD42" stroke="#7FBD42"/>
<path d="M126.72 91.3636L128.48 95.157V96H127.16L120.56 95.157L115.28 94.314L109.56 92.6281L103.4 89.6777L100.32 87.9917L96.36 84.6198L94.16 82.5124L88 74.9256L83.16 66.4959L79.64 57.6446L77 45L89.32 45.843L97.68 46.686L106.48 48.7934L113.52 51.3223L118.36 55.1157L124.08 61.0165L128.48 68.1818L131.12 74.9256L132 81.6694V85.0413L131.12 89.6777L129.36 86.3058L127.16 82.5124L123.2 76.6116L119.24 70.7107L115.28 66.4959L110.44 62.281L104.72 58.4876L96.8 55.9587L99 57.6446L102.08 61.0165L105.6 64.3884L108.68 68.1818L112.64 72.3967L116.16 76.6116L119.24 80.8264L123.2 86.3058L126.72 91.3636Z" fill="#136E43" stroke="#136E43"/>
<path fill-rule="evenodd" clip-rule="evenodd" d="M143.77 238.511C201.145 238.511 247.669 187.455 247.774 124.43L248.211 124.217H255.64L271.372 124.642H272.246L282.296 124.642L285.792 126.766L287.54 130.165V149.285V153.959L285.792 157.783L282.296 160.332L277.052 162.457H275.113C273.06 181.767 266.065 199.748 255.302 215.321L255.64 215.568L257.825 218.967L259.136 222.791V225.34L257.825 229.589L250.833 237.237L237.286 249.983L233.79 253.382L231.605 254.232H228.546L224.613 253.382L219.846 249.52C204.342 259.573 186.371 266.636 166.931 269.794V273.352L165.62 275.901L161.687 279.3L156.443 281H131.971L126.29 279.3L122.358 275.901L121.047 273.352V269.864C103.234 267.028 86.6467 260.915 72.0483 252.226L70.3556 252.958L65.1117 255.507L62.0528 256.782H56.8089L52.002 255.507L30.5894 235.112L28.8414 230.014V225.765L30.5894 221.091L33.3543 216.909C22.2019 201.315 14.8675 183.216 12.5705 163.731H10.4878L8.30283 163.307L4.8069 162.032L3.05894 160.757L1.74796 159.058L0.436991 157.358L0 156.083V153.959V150.985L0.436991 148.86L1.31097 147.586L5.68089 146.311L11.7988 145.036H11.9336C11.94 144.905 11.9467 144.775 11.9535 144.644L14.4206 144.187L24.9084 141.637L34.9592 139.938L40.2031 139.088L40.6514 139.197C47.3276 195.241 90.9506 238.511 143.77 238.511Z" fill="#04312C"/>
</svg>
